<?xml version="1.0" encoding="UTF-8"?>
<svg width="260px" height="260px" viewBox="0 0 260 260" version="1.1" xmlns="http://www.w3.org/2000/svg" xmlns:xlink="http://www.w3.org/1999/xlink">
    <!-- Generator: Sketch 64 (93537) - https://sketch.com -->
    <title>Schema_CMS_260px</title>
    <desc>Created with Sketch.</desc>
    <g id="Schema_CMS_260px" stroke="none" stroke-width="1" fill="none" fill-rule="evenodd">
        <circle id="Oval" fill="#000000" cx="130" cy="130" r="130"></circle>
        <g id="Sc" fill="#FFFFFF" fill-rule="nonzero">
            <path d="M85.8307304,183.927799 C53.9963016,183.927799 39.3784517,169.061824 37.9166667,145.954929 L63.0918527,145.954929 C64.2287966,156.296476 68.6141516,164.860571 85.8307304,164.860571 C97.3625899,164.860571 104.996356,158.55869 104.996356,149.509836 C104.996356,140.299395 100.123739,137.067661 83.069581,134.482274 C53.3466194,130.604194 41.1650778,121.716926 41.1650778,99.4179637 C41.1650778,79.7043882 57.7319744,65 83.3944221,65 C109.544131,65 124.811664,76.6342412 126.923131,99.5795504 L102.722468,99.5795504 C101.098263,89.0764159 94.9262815,84.2288154 83.3944221,84.2288154 C71.8625627,84.2288154 66.0154227,89.561176 66.0154227,97.3173368 C66.0154227,105.558258 69.7510955,109.436338 87.6173565,112.021725 C115.716113,115.576632 130.171542,123.171206 130.171542,147.086035 C130.171542,167.607544 113.279804,183.927799 85.8307304,183.927799 Z M185.556951,183.927799 C160.706606,183.927799 141.865822,168.577064 141.865822,140.945741 L141.865822,139.653048 C141.865822,112.344898 161.518709,95.70147 185.719372,95.70147 C205.372259,95.70147 223.563361,104.265564 225.674828,128.503567 L203.423212,128.503567 C201.799007,118.646779 195.789446,114.122352 186.206634,114.122352 C174.025092,114.122352 165.904064,123.171206 165.904064,139.329875 L165.904064,140.622568 C165.904064,157.58917 173.53783,166.314851 186.693895,166.314851 C196.114287,166.314851 203.748053,160.820904 204.884997,149.994596 L226.16209,149.994596 C224.862726,170.031345 210.244876,183.927799 185.556951,183.927799 Z" id="Combined-Shape"></path>
        </g>
    </g>
</svg>