<?xml version="1.0" encoding="UTF-8"?>
<svg viewBox="0 0 184 23" version="1.1" xmlns="http://www.w3.org/2000/svg" xmlns:xlink="http://www.w3.org/1999/xlink">
    <!-- Generator: Sketch 62 (91390) - https://sketch.com -->
    <title>Logo</title>
    <desc>Created with Sketch.</desc>
    <g id="Mobile-Pages" stroke="none" stroke-width="1" fill="none" fill-rule="evenodd">
        <g id="Page-/-Admin-/-01-Splash" transform="translate(-88.000000, -308.000000)" fill="#FFFFFF" fill-rule="nonzero">
            <g id="A-/-Logo" transform="translate(84.000000, 304.000000)">
                <path d="M12.8456733,27 C6.96854799,27 4.269868,24.2555123 4,19.9896239 L8.64772666,19.9896239 C8.85762399,21.8988327 9.66722799,23.4798962 12.8456733,23.4798962 C14.974632,23.4798962 16.3839426,22.3164721 16.3839426,20.6459144 C16.3839426,18.9455253 15.4843826,18.3488975 12.3359226,17.8715953 C6.84860666,17.155642 4.59970667,15.5149157 4.59970667,11.3981842 C4.59970667,7.75875486 7.65821066,5.04409857 12.3958933,5.04409857 C17.223532,5.04409857 20.0421533,7.1919585 20.4319626,11.4280156 L15.964148,11.4280156 C15.6642946,9.48897536 14.524852,8.59403372 12.3958933,8.59403372 C10.2669347,8.59403372 9.18746265,9.57846952 9.18746265,11.0103761 C9.18746265,12.5317769 9.87712532,13.2477302 13.175512,13.7250324 C18.3629746,14.381323 21.0316693,15.7833982 21.0316693,20.1984436 C21.0316693,23.9870298 17.9131946,27 12.8456733,27 Z M31.2566679,27 C26.6689119,27 23.1906133,24.1660182 23.1906133,19.0648508 L23.1906133,18.8261997 C23.1906133,13.7846952 26.8188386,10.7120623 31.2866533,10.7120623 C34.9148786,10.7120623 38.2732359,12.2931258 38.6630452,16.767834 L34.5550546,16.767834 C34.2552013,14.9481193 33.1457439,14.1128405 31.3766093,14.1128405 C29.1277093,14.1128405 27.6284426,15.7833982 27.6284426,18.766537 L27.6284426,19.0051881 C27.6284426,22.1374838 29.0377533,23.7483787 31.4665653,23.7483787 C33.2057146,23.7483787 34.6150253,22.7341115 34.8249226,20.7354086 L38.7530012,20.7354086 C38.5131186,24.4345006 35.8144386,27 31.2566679,27 Z M41.4816666,26.6718547 L41.4816666,4 L45.8295399,4 L45.8295399,13.5460441 C46.6091586,11.9948119 48.3183226,10.7120623 50.9270466,10.7120623 C54.0155359,10.7120623 56.2044652,12.5616083 56.2044652,16.7380026 L56.2044652,26.6718547 L51.8565919,26.6718547 L51.8565919,17.3644617 C51.8565919,15.2464332 51.0170026,14.232166 49.0979412,14.232166 C47.2388506,14.232166 45.8295399,15.3657588 45.8295399,17.6627756 L45.8295399,26.6718547 L41.4816666,26.6718547 Z M67.1491118,27 C62.4114292,27 58.9631159,24.0466926 58.9631159,19.0648508 L58.9631159,18.8261997 C58.9631159,13.9040208 62.4713999,10.7120623 67.0291705,10.7120623 C71.0771905,10.7120623 74.6754305,13.0687419 74.6754305,18.6472114 L74.6754305,19.8404669 L63.3709599,19.8404669 C63.4909012,22.4357977 64.9002119,23.9273671 67.2690532,23.9273671 C69.2780705,23.9273671 70.2675865,23.0622568 70.5374545,21.7496757 L74.6454452,21.7496757 C74.1356945,25.1206226 71.4370145,27 67.1491118,27 Z M63.4309305,17.1854734 L70.4474985,17.1854734 C70.2975718,14.8287938 69.0981585,13.695201 67.0291705,13.695201 C65.0801239,13.695201 63.7607692,14.9779507 63.4309305,17.1854734 Z M77.5240372,26.6718547 L77.5240372,11.0700389 L81.8719105,11.0700389 L81.8719105,13.4565499 C82.6515291,11.9948119 84.3307078,10.7120623 86.6695638,10.7120623 C88.7385518,10.7120623 90.2977891,11.5771725 91.0474225,13.4267185 C92.3068065,11.5473411 94.3458091,10.7120623 96.3248411,10.7120623 C99.2334184,10.7120623 101.482318,12.5317769 101.482318,16.6783398 L101.482318,26.6718547 L97.1644304,26.6718547 L97.1644304,17.155642 C97.1644304,15.156939 96.2648704,14.2619974 94.7056331,14.2619974 C93.0264545,14.2619974 91.6771145,15.3359274 91.6771145,17.4539559 L91.6771145,26.6718547 L87.3592265,26.6718547 L87.3592265,17.155642 C87.3592265,15.156939 86.4296811,14.2619974 84.9004291,14.2619974 C83.2212505,14.2619974 81.8719105,15.3359274 81.8719105,17.4539559 L81.8719105,26.6718547 L77.5240372,26.6718547 Z M109.428432,27 C106.579825,27 104.180998,25.6277562 104.180998,22.3463035 C104.180998,18.7068742 107.539356,17.3346304 112.337009,17.3346304 L114.106144,17.3346304 L114.106144,16.7081712 C114.106144,14.8586252 113.536422,13.844358 111.55739,13.844358 C109.848226,13.844358 109.068608,14.7094682 108.888696,16.0518807 L104.780705,16.0518807 C105.050573,12.3527886 107.989136,10.7120623 111.827258,10.7120623 C115.665381,10.7120623 118.394046,12.2632944 118.394046,16.4993515 L118.394046,26.6718547 L114.166114,26.6718547 L114.166114,24.7924773 C113.266554,26.0453956 111.887229,27 109.428432,27 Z M110.717801,23.9870298 C112.636862,23.9870298 114.106144,22.9429313 114.106144,21.2127108 L114.106144,19.9001297 L112.426965,19.9001297 C109.908197,19.9001297 108.438916,20.4370947 108.438916,22.1076524 C108.438916,23.2412451 109.128578,23.9870298 110.717801,23.9870298 Z M136.305285,26.8806744 C130.278233,26.8806744 126.38014,22.4954604 126.38014,16.1413748 L126.38014,15.9027237 C126.38014,9.60830091 130.817969,5.13359274 136.305285,5.13359274 C140.683144,5.13359274 144.161443,7.40077821 144.911076,11.5771725 L143.831604,11.5771725 C143.081971,8.05706874 140.443261,6.02853437 136.305285,6.02853437 C131.267749,6.02853437 127.489597,10.0856031 127.489597,15.8728923 L127.489597,16.1115435 C127.489597,22.0479896 130.937911,25.9559014 136.335271,25.9559014 C140.413276,25.9559014 143.411809,23.7185473 144.191428,19.9597925 L145.180944,19.9597925 C144.37134,24.3450065 140.833071,26.8806744 136.305285,26.8806744 Z M149.348905,26.6718547 L149.348905,5.34241245 L150.938128,5.34241245 L159.094139,24.7029831 L167.400076,5.34241245 L168.989299,5.34241245 L168.989299,26.6718547 L167.909827,26.6718547 L167.909827,6.62516213 L159.274051,26.6718547 L158.854256,26.6718547 L150.368407,6.62516213 L150.368407,26.6718547 L149.348905,26.6718547 Z M180.953447,26.8806744 C175.945896,26.8806744 173.60704,24.1958495 173.15726,20.7950713 L174.206747,20.7950713 C174.626541,23.5992218 176.425661,25.9559014 180.953447,25.9559014 C184.731599,25.9559014 186.920528,23.8378729 186.920528,21.0337224 C186.920528,17.7224384 185.271335,16.6783398 180.833505,16.0220493 C176.035852,15.3359274 174.026835,13.695201 174.026835,10.5629053 C174.026835,7.25162127 176.695529,5.13359274 180.683579,5.13359274 C184.491716,5.13359274 186.770601,7.01297017 187.280352,10.1750973 L186.260851,10.1750973 C185.7511,7.54993515 184.011951,6.02853437 180.683579,6.02853437 C177.175295,6.02853437 175.076321,7.60959792 175.076321,10.5032425 C175.076321,13.0090791 176.485632,14.381323 180.983432,15.0376135 C185.841056,15.7535668 188,17.0064851 188,21.0038911 C188,24.2555123 185.361291,26.8806744 180.953447,26.8806744 Z" id="Combined-Shape"></path>
            </g>
        </g>
    </g>
</svg>
