<svg xmlns="http://www.w3.org/2000/svg" viewBox="0 0 96 16">
  <path
    d="M6.198 2.522c2.414 0 3.823 1.074 4.018 3.192H7.982c-.15-.97-.72-1.417-1.784-1.417-1.065 0-1.604.492-1.604 1.208 0 .76.345 1.119 1.994 1.358 2.593.328 3.928 1.029 3.928 3.236 0 1.895-1.56 3.401-4.093 3.401-2.939 0-4.288-1.372-4.423-3.505h2.324c.105.954.51 1.745 2.099 1.745 1.064 0 1.769-.582 1.769-1.417 0-.85-.45-1.149-2.024-1.387C3.424 8.578 2.3 7.757 2.3 5.699c0-1.82 1.53-3.177 3.898-3.177zm49.716 2.834c1.919 0 3.283.776 3.283 2.894v5.086h-2.114v-.94c-.45.627-1.14 1.104-2.369 1.104-1.424 0-2.624-.686-2.624-2.327 0-1.82 1.68-2.506 4.079-2.506h.884v-.313c0-.925-.285-1.432-1.274-1.432-.855 0-1.245.433-1.335 1.104H52.39c.135-1.85 1.605-2.67 3.524-2.67zm-22.4 0c2.025 0 3.824 1.178 3.824 3.968v.596h-5.653c.06 1.298.765 2.044 1.95 2.044 1.004 0 1.499-.433 1.634-1.09h2.054c-.255 1.686-1.604 2.626-3.748 2.626-2.37 0-4.093-1.477-4.093-3.968v-.119c0-2.461 1.754-4.057 4.033-4.057zm-17.87 0c1.813 0 3.493.79 3.688 3.028h-2.054c-.15-.91-.705-1.328-1.59-1.328-1.124 0-1.874.836-1.874 2.327v.12c0 1.566.705 2.371 1.92 2.371.869 0 1.574-.507 1.678-1.506h1.965c-.12 1.85-1.47 3.132-3.749 3.132-2.294 0-4.033-1.417-4.033-3.968v-.119c0-2.52 1.814-4.057 4.048-4.057zm74.698-2.79c1.904 0 3.043.94 3.298 2.522h-.51c-.254-1.313-1.124-2.074-2.788-2.074-1.754 0-2.804.79-2.804 2.238 0 1.253.705 1.939 2.954 2.267C92.92 7.877 94 8.503 94 10.502c0 1.626-1.32 2.938-3.523 2.938-2.504 0-3.673-1.342-3.898-3.042h.524c.21 1.402 1.11 2.58 3.374 2.58 1.889 0 2.983-1.06 2.983-2.461 0-1.656-.824-2.178-3.043-2.506-2.4-.343-3.404-1.163-3.404-2.73 0-1.655 1.335-2.714 3.329-2.714zm-22.19 0c2.19 0 3.929 1.134 4.304 3.223h-.54c-.375-1.76-1.694-2.775-3.763-2.775-2.52 0-4.408 2.029-4.408 4.922v.12c0 2.968 1.724 4.922 4.423 4.922 2.039 0 3.538-1.119 3.928-2.998h.494c-.404 2.193-2.173 3.46-4.437 3.46-3.014 0-4.963-2.192-4.963-5.37v-.119c0-3.147 2.219-5.384 4.963-5.384zm-19.99 2.79c1.455 0 2.58.91 2.58 2.983v4.997h-2.16V8.578c0-1-.45-1.447-1.23-1.447-.839 0-1.513.537-1.513 1.596v4.609h-2.16V8.578c0-1-.464-1.447-1.229-1.447-.84 0-1.514.537-1.514 1.596v4.609h-2.174V5.535h2.174v1.193c.39-.73 1.23-1.372 2.399-1.372 1.034 0 1.814.433 2.189 1.357.63-.94 1.649-1.357 2.638-1.357zM22.915 2v4.773c.39-.776 1.244-1.417 2.549-1.417 1.544 0 2.638.925 2.638 3.013v4.967h-2.174V8.682c0-1.059-.42-1.566-1.379-1.566-.93 0-1.634.567-1.634 1.715v4.505H20.74V2h2.174zm52.554.671l4.078 9.68 4.153-9.68h.795v10.665h-.54V3.313l-4.318 10.023h-.21L75.184 3.313v10.023h-.51V2.67h.795zm-18.416 7.28h-.84c-1.259 0-1.994.268-1.994 1.103 0 .567.345.94 1.14.94.96 0 1.694-.523 1.694-1.388V9.95zM33.515 6.847c-.975 0-1.635.641-1.8 1.745h3.509c-.075-1.179-.675-1.745-1.71-1.745zm27.752-4.455l.412 1.1.42-1.1h.917v2.234h-.763V3.353l-.504 1.274h-.23l-.497-1.274v1.274h-.651V2.393h.896zm-1.169 0v.584h-.58v1.65h-.75v-1.65h-.58v-.584h1.91z"/>
</svg>
