<?xml version="1.0" encoding="UTF-8"?>
<svg viewBox="0 0 184 23" version="1.1" xmlns="http://www.w3.org/2000/svg" xmlns:xlink="http://www.w3.org/1999/xlink">
<!-- Generator: Sketch 62 (91390) - https://sketch.com -->
<title>Logo</title>
<desc>Created with Sketch.</desc>
<g id="Mobile-Pages" stroke="none" stroke-width="1" fill="inherit" fill-rule="evenodd">
  <g id="Page-/-Admin-/-01-Splash" transform="translate(-84.000000, -304.000000)" fill="inherit" fill-rule="nonzero">
    <g id="A-/-Logo" transform="translate(84.000000, 304.000000)">
      <path d="M8.8456733,23 C2.96854799,23 0.269868,20.2555123 0,15.9896239 L4.64772666,15.9896239 C4.85762399,17.8988327 5.66722799,19.4798962 8.8456733,19.4798962 C10.974632,19.4798962 12.3839426,18.3164721 12.3839426,16.6459144 C12.3839426,14.9455253 11.4843826,14.3488975 8.3359226,13.8715953 C2.84860666,13.155642 0.59970667,11.5149157 0.59970667,7.3981842 C0.59970667,3.75875486 3.65821066,1.04409857 8.3958933,1.04409857 C13.223532,1.04409857 16.0421533,3.1919585 16.4319626,7.4280156 L11.964148,7.4280156 C11.6642946,5.48897536 10.524852,4.59403372 8.3958933,4.59403372 C6.2669347,4.59403372 5.18746265,5.57846952 5.18746265,7.0103761 C5.18746265,8.5317769 5.87712532,9.2477302 9.175512,9.7250324 C14.3629746,10.381323 17.0316693,11.7833982 17.0316693,16.1984436 C17.0316693,19.9870298 13.9131946,23 8.8456733,23 Z M27.2566679,23 C22.6689119,23 19.1906133,20.1660182 19.1906133,15.0648508 L19.1906133,14.8261997 C19.1906133,9.7846952 22.8188386,6.7120623 27.2866533,6.7120623 C30.9148786,6.7120623 34.2732359,8.2931258 34.6630452,12.767834 L30.5550546,12.767834 C30.2552013,10.9481193 29.1457439,10.1128405 27.3766093,10.1128405 C25.1277093,10.1128405 23.6284426,11.7833982 23.6284426,14.766537 L23.6284426,15.0051881 C23.6284426,18.1374838 25.0377533,19.7483787 27.4665653,19.7483787 C29.2057146,19.7483787 30.6150253,18.7341115 30.8249226,16.7354086 L34.7530012,16.7354086 C34.5131186,20.4345006 31.8144386,23 27.2566679,23 Z M37.4816666,22.6718547 L37.4816666,0 L41.8295399,0 L41.8295399,9.5460441 C42.6091586,7.9948119 44.3183226,6.7120623 46.9270466,6.7120623 C50.0155359,6.7120623 52.2044652,8.5616083 52.2044652,12.7380026 L52.2044652,22.6718547 L47.8565919,22.6718547 L47.8565919,13.3644617 C47.8565919,11.2464332 47.0170026,10.232166 45.0979412,10.232166 C43.2388506,10.232166 41.8295399,11.3657588 41.8295399,13.6627756 L41.8295399,22.6718547 L37.4816666,22.6718547 Z M63.1491118,23 C58.4114292,23 54.9631159,20.0466926 54.9631159,15.0648508 L54.9631159,14.8261997 C54.9631159,9.9040208 58.4713999,6.7120623 63.0291705,6.7120623 C67.0771905,6.7120623 70.6754305,9.0687419 70.6754305,14.6472114 L70.6754305,15.8404669 L59.3709599,15.8404669 C59.4909012,18.4357977 60.9002119,19.9273671 63.2690532,19.9273671 C65.2780705,19.9273671 66.2675865,19.0622568 66.5374545,17.7496757 L70.6454452,17.7496757 C70.1356945,21.1206226 67.4370145,23 63.1491118,23 Z M59.4309305,13.1854734 L66.4474985,13.1854734 C66.2975718,10.8287938 65.0981585,9.695201 63.0291705,9.695201 C61.0801239,9.695201 59.7607692,10.9779507 59.4309305,13.1854734 Z M73.5240372,22.6718547 L73.5240372,7.0700389 L77.8719105,7.0700389 L77.8719105,9.4565499 C78.6515291,7.9948119 80.3307078,6.7120623 82.6695638,6.7120623 C84.7385518,6.7120623 86.2977891,7.5771725 87.0474225,9.4267185 C88.3068065,7.5473411 90.3458091,6.7120623 92.3248411,6.7120623 C95.2334184,6.7120623 97.482318,8.5317769 97.482318,12.6783398 L97.482318,22.6718547 L93.1644304,22.6718547 L93.1644304,13.155642 C93.1644304,11.156939 92.2648704,10.2619974 90.7056331,10.2619974 C89.0264545,10.2619974 87.6771145,11.3359274 87.6771145,13.4539559 L87.6771145,22.6718547 L83.3592265,22.6718547 L83.3592265,13.155642 C83.3592265,11.156939 82.4296811,10.2619974 80.9004291,10.2619974 C79.2212505,10.2619974 77.8719105,11.3359274 77.8719105,13.4539559 L77.8719105,22.6718547 L73.5240372,22.6718547 Z M105.428432,23 C102.579825,23 100.180998,21.6277562 100.180998,18.3463035 C100.180998,14.7068742 103.539356,13.3346304 108.337009,13.3346304 L110.106144,13.3346304 L110.106144,12.7081712 C110.106144,10.8586252 109.536422,9.844358 107.55739,9.844358 C105.848226,9.844358 105.068608,10.7094682 104.888696,12.0518807 L100.780705,12.0518807 C101.050573,8.3527886 103.989136,6.7120623 107.827258,6.7120623 C111.665381,6.7120623 114.394046,8.2632944 114.394046,12.4993515 L114.394046,22.6718547 L110.166114,22.6718547 L110.166114,20.7924773 C109.266554,22.0453956 107.887229,23 105.428432,23 Z M106.717801,19.9870298 C108.636862,19.9870298 110.106144,18.9429313 110.106144,17.2127108 L110.106144,15.9001297 L108.426965,15.9001297 C105.908197,15.9001297 104.438916,16.4370947 104.438916,18.1076524 C104.438916,19.2412451 105.128578,19.9870298 106.717801,19.9870298 Z M127.305285,22.8806744 C121.278233,22.8806744 117.38014,18.4954604 117.38014,12.1413748 L117.38014,11.9027237 C117.38014,5.60830091 121.817969,1.13359274 127.305285,1.13359274 C131.683144,1.13359274 135.161443,3.40077821 135.911076,7.5771725 L134.831604,7.5771725 C134.081971,4.05706874 131.443261,2.02853437 127.305285,2.02853437 C122.267749,2.02853437 118.489597,6.0856031 118.489597,11.8728923 L118.489597,12.1115435 C118.489597,18.0479896 121.937911,21.9559014 127.335271,21.9559014 C131.413276,21.9559014 134.411809,19.7185473 135.191428,15.9597925 L136.180944,15.9597925 C135.37134,20.3450065 131.833071,22.8806744 127.305285,22.8806744 Z M139.348905,22.6718547 L139.348905,1.34241245 L140.938128,1.34241245 L149.094139,20.7029831 L157.400076,1.34241245 L158.989299,1.34241245 L158.989299,22.6718547 L157.909827,22.6718547 L157.909827,2.62516213 L149.274051,22.6718547 L148.854256,22.6718547 L140.368407,2.62516213 L140.368407,22.6718547 L139.348905,22.6718547 Z M169.953447,22.8806744 C164.945896,22.8806744 162.60704,20.1958495 162.15726,16.7950713 L163.206747,16.7950713 C163.626541,19.5992218 165.425661,21.9559014 169.953447,21.9559014 C173.731599,21.9559014 175.920528,19.8378729 175.920528,17.0337224 C175.920528,13.7224384 174.271335,12.6783398 169.833505,12.0220493 C165.035852,11.3359274 163.026835,9.695201 163.026835,6.5629053 C163.026835,3.25162127 165.695529,1.13359274 169.683579,1.13359274 C173.491716,1.13359274 175.770601,3.01297017 176.280352,6.1750973 L175.260851,6.1750973 C174.7511,3.54993515 173.011951,2.02853437 169.683579,2.02853437 C166.175295,2.02853437 164.076321,3.60959792 164.076321,6.5032425 C164.076321,9.0090791 165.485632,10.381323 169.983432,11.0376135 C174.841056,11.7535668 177,13.0064851 177,17.0038911 C177,20.2555123 174.361291,22.8806744 169.953447,22.8806744 Z" id="Combined-Shape"></path>
    </g>
  </g>
</g>
</svg>
