<?xml version="1.0" encoding="iso-8859-1"?>
<svg version="1.1" id="Capa_1" xmlns="http://www.w3.org/2000/svg" xmlns:xlink="http://www.w3.org/1999/xlink" x="0px" y="0px"
	 viewBox="0 0 512 512" style="enable-background:new 0 0 512 512;" xml:space="preserve">
		<path d="M464,64h-48V48c0-26.51-21.49-48-48-48H48C21.49,0,0,21.49,0,48v320c0,26.51,21.49,48,48,48h16v48c0,26.51,21.49,48,48,48
			h352c26.51,0,48-21.49,48-48V112C512,85.49,490.51,64,464,64z M64,112v272H48c-8.837,0-16-7.163-16-16V48c0-8.837,7.163-16,16-16
			h320c8.837,0,16,7.163,16,16v16H112C85.49,64,64,85.49,64,112z M480,464c0,8.837-7.163,16-16,16H112c-8.837,0-16-7.163-16-16V112
			c0-8.837,7.163-16,16-16h352c8.837,0,16,7.163,16,16V464z"/>

</svg>