<svg xmlns="http://www.w3.org/2000/svg" viewBox="0 0 30 30" >
    <g>
        <path d="M25.976 15.668l-.013.036a.536.536 0 0 1-.065.122C22.904 19.934 19.263 22 15 22s-7.904-2.066-10.898-6.174l-.022-.034a.515.515 0 0 1-.024-.043l.046.077a.52.52 0 0 1-.078-.158l-.004-.015a.57.57 0 0 1 .007-.33.533.533 0 0 1 .056-.12l-.042.083a.53.53 0 0 1 .024-.052l.018-.031C7.073 10.415 10.722 8 15 8s7.927 2.415 10.917 7.203a.52.52 0 0 1 .079.225.628.628 0 0 1-.016.225l-.004.015zM15 9c-3.995 0-7.398 2.252-10.237 6.797l.204-.322.028.037C7.781 19.178 11.107 21 15 21c3.906 0 7.241-1.834 10.032-5.524C22.235 11.146 18.9 9 15 9z"/>
        <circle cx="15" cy="15" r="4.5" fill="none"/>
    </g>
</svg>
