<svg xmlns="http://www.w3.org/2000/svg" viewBox="15 15 35.5 32" fill="white" stroke="black">
  <defs>
    <path id="a" d="M.5 0h14v14H.5z"></path>
  </defs>
  <g fill-rule="evenodd">
    <path stroke="none" d="M15 45V15h30v30H15zm14-9.334H17V43h12v-7.334zm14 0H31V43h12v-7.334zm0-9.333H30.999L31 33.666h12v-7.333zm-14.001 0h-12L17 33.666h12l-.001-7.333zM43 17H30.999v7.333H43V17zm-14.001 0h-12v7.333h12V17z"></path>
    <circle cx="43" cy="40" r="5" stroke-width="10" fill="none"></circle>
    <g transform="translate(36 33)">
      <path stroke="none" d="M7.42 8.872c-1.173-.03-1.864-.746-1.84-1.92.024-1.183.774-1.763 1.933-1.87 1.147.163 1.87.778 1.836 1.959-.033 1.17-.756 1.86-1.93 1.83m7.081-.6V5.723c-2.414-.738-2.412-.737-1.336-2.595.044-.076.006-.2.006-.138L11.64 1.117C9.487 2.392 9.487 2.392 8.675.057c-.39-.02-.807-.06-1.223-.057-.412.002-.824.046-1.206.07-.65 2.143-.65 2.143-2.94 1.185-.29.27-.611.545-.9.849-.281.294-.53.618-.769.903C2.86 4.977 2.86 4.977.5 5.747v2.434l2.28.644-1.169 2.149 1.705 1.822c2.379-1.249 2.379-1.249 2.87 1.204h2.559c.576-2.424.576-2.424 2.865-1.215l1.684-1.736C12.067 8.735 12.067 8.735 14.5 8.27"></path>
    </g>
  </g>
</svg>
