<?xml version="1.0" encoding="utf-8"?>
<svg version="1.1" xmlns="http://www.w3.org/2000/svg" x="0px" y="0px"
     viewBox="0 0 1000 1000" enable-background="new 0 0 1000 1000" xml:space="preserve">
<g><g transform="translate(0.000000,511.000000) scale(0.100000,-0.100000)"><path d="M395.6,4453.8c-104.6-51.3-188.7-131.2-242-233.8c-41-75.9-45.1-118.9-51.3-502.4c-6.2-266.6,0-459.3,16.4-527c26.7-123,145.6-272.7,268.6-334.2c75.9-41,141.5-41,3436.8-41H7183l102.5,59.5c110.7,63.6,203,178.4,235.8,291.2c28.7,100.5,26.7,887.9-4.1,986.3c-30.8,104.6-157.9,248.1-268.6,301.4l-88.2,43.1H3818C533,4494.9,475.5,4494.9,395.6,4453.8z M7172.7,4109.4c30.8-59.5,26.7-890-4.1-920.7c-18.4-18.5-791.5-24.6-3352.7-24.6c-3268.6,0-3326,0-3348.6,39c-12.3,24.6-20.5,209.2-20.5,461.4c0,354.8,4.1,424.5,32.8,451.1c28.7,28.7,360.9,32.8,3350.6,32.8C7092.7,4148.3,7150.2,4148.3,7172.7,4109.4z"/><path
  d="M631.4-311.7c0-2302.8,4.1-2811.3,26.7-2866.7c41-98.4,129.2-192.8,237.9-256.3l94.3-55.4l559.8-6.1l557.8-6.2v174.3v174.3l-543.4,6.1c-457.3,6.2-547.5,10.3-563.9,36.9c-12.3,18.5-20.5,432.7-20.5,1021.2v988.4h563.9h563.9v174.3v174.3h-563.9H980V252.2V1257h563.9h563.9v174.3v174.3h-563.9H980v440.9v440.9H805.7H631.4V-311.7z"/><path
  d="M2741.4,2081.3c-141.5-73.8-233.8-194.8-264.5-344.5c-16.4-71.8-20.5-262.5-16.4-516.7c6.1-365,10.3-412.2,51.3-486C2563,637.7,2663.5,539.3,2764,486c69.7-36.9,198.9-39,3352.7-45.1c2315.1-4.1,3313.7,2,3389.6,18.5c141.5,28.7,264.5,125.1,336.3,262.5l57.4,108.7v463.4c0,426.5-4.1,469.6-43.1,551.6c-53.3,110.7-196.9,237.9-301.4,268.6c-59.5,18.5-912.5,24.6-3393.7,24.6H2850.1L2741.4,2081.3z M9512.4,1769.6c36.9-20.5,39-47.2,39-467.5c0-244-8.2-457.3-16.4-471.6c-14.4-20.5-699.3-24.6-3358.8-20.5l-3340.4,6.2l-6.1,459.3c-4.1,319.9,2,467.5,18.5,486c20.5,24.6,547.5,28.7,3324,28.7C8407.2,1790.1,9485.8,1784,9512.4,1769.6z"/><path
  d="M2817.3-239.9c-92.3-28.7-209.2-118.9-266.6-207.1c-82-123-98.4-246.1-90.2-691c8.2-455.2,18.5-500.4,166.1-641.8c155.8-151.7-106.6-143.5,3592.6-137.4l3321.9,6.1l84.1,45.1c108.7,57.4,219.4,186.6,250.2,291.2c32.8,106.6,32.8,902.3,0,1008.9c-30.8,104.6-141.5,233.8-250.2,291.2l-84.1,45.1L6209-225.6C4375.7-223.5,2850.1-229.7,2817.3-239.9z M9518.6-600.8c49.2-47.2,49.2-892,0-939.2c-28.7-28.7-358.8-32.8-3321.9-32.8c-2231,0-3305.5,6.1-3332.2,20.5c-36.9,20.5-39,47.1-39,481.9c0,416.3,4.1,461.4,36.9,479.8c22.6,14.3,1129.9,20.5,3330.1,22.6C9159.7-568,9489.9-572.1,9518.6-600.8z"/><path
  d="M2821.4-2602.2c-96.4-24.6-250.2-159.9-309.6-270.7c-41-75.8-45.1-118.9-51.3-488c-4.1-248.1,2-445,16.4-514.7c28.7-139.4,118.9-264.5,242-338.3l96.4-55.4l3321.9-6.1c2485.3-4.1,3344.5,0,3410.1,18.4c108.7,30.8,254.3,155.9,309.6,270.7c38.9,82,43.1,125.1,43.1,549.6c0,438.8-2.1,463.4-49.2,561.9c-47.2,106.6-129.2,188.7-246.1,252.2c-59.5,32.8-291.2,34.9-3385.5,39C4072.3-2581.7,2870.6-2587.8,2821.4-2602.2z M9530.9-2967.2c10.3-16.4,20.5-231.7,20.5-475.7c0-420.4-2-447-39-467.5c-61.5-32.8-6629.5-28.7-6662.3,4.1c-18.5,18.4-24.6,153.8-24.6,481.9c0,457.3,0,459.3,47.2,477.8c26.7,10.3,1400.5,16.4,3342.4,14.4C9120.8-2936.4,9514.5-2940.5,9530.9-2967.2z"/></g></g>
</svg>
