<svg xmlns="http://www.w3.org/2000/svg" xmlns:xlink="http://www.w3.org/1999/xlink" viewBox="0 0 28 28">
    <defs>
        <path id="a" d="M0 0h24.034v24.034H0z"/>
    </defs>
    <g fill-rule="evenodd" transform="translate(1.867 1.867)">
        <mask id="b" fill="#fff">
            <use xlink:href="#a"/>
        </mask>
        <path d="M4.138 19.57c1.38-.552 2.677-1.04 3.948-1.588 1.495-.646 1.735-1.708.889-3.134-.632-1.065-1.361-2.162-1.616-3.34-.284-1.311-.117-2.73-.081-4.1.068-2.682 1.755-4.263 4.561-4.268 2.074-.004 5.335 1.606 5.025 4.192-.274 2.283.356 4.774-1.347 6.785-.193.229-.308.523-.474.777-.886 1.37-.568 2.463.95 3.104 1.273.537 2.566 1.029 3.863 1.545 4.067-3.565 4.198-10.59.257-14.93C15.993.079 8.887-.158 4.432 4.09.044 8.275-.1 15.32 4.138 19.57M0 11.9C.053 5.289 5.524-.063 12.165 0c6.606.064 11.94 5.543 11.868 12.195-.07 6.542-5.517 11.874-12.098 11.84C5.326 24-.052 18.531 0 11.9" mask="url(#b)"/>
    </g>
</svg>
