<?xml version="1.0" standalone="no"?>
<!DOCTYPE svg PUBLIC "-//W3C//DTD SVG 20010904//EN"
 "http://www.w3.org/TR/2001/REC-SVG-20010904/DTD/svg10.dtd">
<svg version="1.0" xmlns="http://www.w3.org/2000/svg"
 width="5888.000000pt" height="5888.000000pt" viewBox="0 0 5888.000000 5888.000000"
 preserveAspectRatio="xMidYMid meet">
<metadata>
Created by potrace 1.11, written by Peter Selinger 2001-2013
</metadata>
<g transform="translate(0.000000,5888.000000) scale(0.100000,-0.100000)"
fill="#000000" stroke="none">
<path d="M11994 29495 c0 -3266 2 -3625 16 -3626 40 -3 1347 -4 1360 -1 14 3
15 171 16 1495 0 821 4 1517 8 1547 4 30 8 69 10 85 7 65 61 248 83 281 8 13
15 27 16 31 2 20 22 63 29 63 4 0 8 5 8 10 0 22 104 155 164 210 69 63 239
170 271 170 4 0 21 7 38 14 28 13 125 41 179 51 121 24 383 23 488 -1 14 -3
41 -9 60 -14 167 -37 315 -136 409 -273 29 -43 96 -177 100 -202 1 -5 6 -28
12 -50 23 -83 34 -147 45 -255 3 -25 6 -747 7 -1605 l2 -1560 680 0 c374 -1
687 1 695 3 14 3 15 186 15 1665 0 914 -4 1668 -8 1675 -5 7 -4 12 3 12 6 0 9
4 6 9 -3 5 -8 44 -11 87 -3 44 -8 90 -10 104 -2 14 -7 48 -10 75 -3 28 -9 64
-12 80 -3 17 -7 39 -9 50 -5 35 -13 68 -34 145 -11 41 -23 85 -25 96 -7 30
-52 149 -81 212 -13 29 -24 54 -24 57 0 12 -130 225 -150 245 -3 3 -23 27 -45
55 -50 63 -149 161 -201 199 -21 17 -41 33 -44 36 -3 3 -41 28 -85 56 -76 47
-114 67 -215 112 -46 21 -231 78 -278 87 -14 2 -51 10 -81 16 -31 6 -74 13
-96 14 -22 2 -40 4 -40 5 0 8 -344 12 -420 6 -145 -13 -206 -23 -375 -61 -22
-5 -129 -37 -145 -44 -11 -5 -47 -19 -80 -31 -72 -28 -239 -111 -243 -122 -2
-4 -8 -8 -13 -8 -14 0 -156 -101 -218 -155 -74 -65 -166 -162 -220 -234 -61
-80 -141 -208 -141 -225 0 -5 -3 -6 -7 -2 -5 4 -8 688 -8 1519 l0 1512 -695 3
-696 2 0 -3625z"/>
<path d="M2527 32784 c-1 -1 -49 -5 -107 -9 -181 -11 -231 -18 -425 -57 -163
-32 -163 -32 -185 -41 -8 -3 -49 -15 -90 -27 -78 -22 -225 -75 -295 -106 -22
-10 -42 -18 -45 -19 -21 -6 -143 -71 -230 -123 -213 -127 -372 -260 -522 -439
-76 -90 -188 -251 -188 -269 0 -7 -4 -14 -8 -16 -18 -8 -143 -291 -157 -358
-2 -8 -4 -15 -5 -15 -1 0 -3 -7 -5 -15 -1 -8 -8 -35 -15 -60 -7 -25 -14 -52
-15 -60 -1 -13 -5 -34 -19 -105 -20 -105 -28 -459 -12 -595 4 -36 9 -81 11
-100 4 -38 14 -101 22 -134 2 -11 6 -30 8 -41 6 -37 36 -150 48 -180 6 -16 12
-32 12 -35 2 -15 49 -129 79 -190 36 -72 117 -203 142 -227 8 -8 14 -18 14
-22 0 -18 204 -213 292 -279 54 -39 99 -72 102 -72 2 0 33 -17 67 -38 76 -46
226 -118 324 -157 39 -15 79 -31 90 -36 71 -29 338 -110 415 -125 14 -3 50
-11 80 -19 56 -14 280 -60 335 -69 17 -3 39 -7 50 -9 11 -3 40 -8 65 -11 25
-3 56 -8 70 -11 14 -3 43 -7 65 -10 22 -2 51 -6 65 -9 14 -3 46 -7 72 -10 26
-3 58 -8 70 -10 13 -3 41 -8 63 -11 38 -5 119 -19 175 -30 14 -3 48 -9 75 -15
28 -5 60 -12 73 -15 12 -3 32 -7 45 -10 58 -12 194 -47 212 -55 11 -4 49 -18
85 -30 109 -38 201 -83 289 -145 8 -5 42 -38 75 -71 62 -63 102 -130 131 -219
16 -49 19 -62 31 -155 12 -97 2 -285 -17 -322 -5 -10 -8 -18 -5 -18 9 0 -41
-135 -69 -185 -67 -121 -158 -218 -290 -311 -41 -29 -118 -69 -127 -66 -5 1
-8 -3 -8 -8 0 -6 -8 -10 -18 -10 -10 0 -22 -4 -28 -9 -11 -10 -167 -61 -204
-66 -14 -2 -36 -6 -50 -9 -115 -27 -319 -36 -495 -22 -126 10 -166 14 -195 20
-58 12 -78 16 -125 27 -27 7 -51 12 -52 11 -2 -1 -40 12 -85 29 -304 111 -490
293 -607 594 -16 39 -47 149 -57 200 -12 60 -16 83 -19 110 -2 17 -4 30 -5 30
-1 0 -4 18 -6 40 -3 21 -7 42 -10 44 -3 3 -338 6 -745 6 l-739 0 5 -65 c3 -36
7 -81 10 -100 2 -19 7 -57 10 -85 4 -27 13 -82 21 -120 7 -39 16 -84 18 -100
24 -169 176 -546 290 -721 129 -197 274 -357 446 -490 86 -67 193 -139 203
-136 4 1 7 -1 7 -5 0 -5 39 -28 88 -53 48 -25 89 -48 90 -52 2 -5 8 -8 13 -8
6 0 36 -12 67 -26 80 -37 265 -105 352 -129 208 -58 429 -103 598 -121 24 -2
60 -6 80 -9 99 -13 261 -19 507 -19 269 -1 437 8 535 28 14 3 45 7 70 10 25 3
52 7 60 10 8 3 33 8 55 11 22 3 64 12 95 20 30 8 66 16 80 19 135 25 505 166
613 233 21 13 48 28 60 34 29 13 56 29 94 57 17 12 34 22 38 22 5 0 92 62 156
112 126 98 285 257 363 363 17 22 32 42 35 45 27 24 147 223 190 314 44 92
101 239 108 275 2 14 7 29 11 35 3 6 7 16 8 21 1 6 12 51 23 102 20 90 34 177
35 221 1 12 4 22 7 22 8 0 4 461 -5 525 -6 47 -21 142 -32 210 -3 17 -9 45
-14 64 -5 19 -7 38 -5 42 3 4 1 9 -4 11 -6 1 -11 14 -13 28 -2 14 -7 31 -12
38 -4 7 -5 16 -2 19 3 3 0 15 -7 27 -6 11 -12 26 -13 31 0 6 -9 30 -19 55 -11
25 -18 45 -17 45 10 0 -107 204 -158 277 -57 81 -260 298 -280 298 -4 0 -18
10 -31 21 -35 31 -167 119 -178 119 -5 0 -11 4 -13 8 -3 7 -230 121 -285 143
-13 5 -33 13 -45 18 -46 19 -195 70 -268 91 -41 12 -86 26 -100 30 -60 20
-394 95 -465 105 -22 3 -50 8 -63 11 -31 6 -177 31 -233 38 -25 4 -57 9 -70
11 -49 8 -95 14 -149 20 -30 3 -62 8 -70 10 -8 2 -40 7 -70 10 -30 4 -58 9
-61 10 -3 2 -28 7 -55 11 -27 3 -52 8 -55 10 -4 2 -28 6 -54 9 -27 4 -57 11
-68 16 -10 6 -25 8 -32 5 -8 -3 -17 -1 -19 3 -3 5 -25 12 -48 16 -24 5 -45 9
-48 10 -3 0 -16 4 -30 8 -14 4 -43 13 -65 18 -22 6 -49 15 -60 19 -30 12 -59
23 -67 25 -5 2 -10 4 -13 5 -3 1 -8 3 -12 4 -41 9 -223 110 -231 129 -2 4 -8
7 -13 7 -15 0 -92 81 -125 131 -37 55 -61 108 -74 162 -6 23 -13 51 -16 62 -3
11 -7 76 -10 145 -3 113 3 167 29 276 9 35 50 129 59 132 4 2 8 8 8 13 0 27
117 157 180 199 19 13 37 27 40 30 3 4 39 23 80 43 196 94 344 122 635 121
220 -1 280 -7 440 -48 59 -15 182 -65 215 -87 14 -9 29 -17 33 -17 17 0 146
-103 187 -149 64 -73 149 -208 165 -263 1 -3 7 -18 14 -35 15 -35 50 -149 57
-185 4 -22 14 -68 20 -92 1 -5 2 -12 3 -16 0 -5 322 -8 714 -8 l712 1 -1 30
c-4 72 -31 245 -58 360 -2 11 -9 41 -15 66 -6 25 -24 85 -41 135 -17 49 -33
94 -34 99 -28 99 -179 386 -246 468 -5 7 -29 37 -52 67 -57 75 -138 160 -229
239 -98 85 -110 95 -161 128 -24 15 -49 34 -56 40 -7 7 -19 13 -27 13 -7 0
-15 3 -17 8 -4 8 -48 35 -98 60 -19 9 -37 19 -40 22 -7 8 -134 65 -195 88 -27
10 -59 23 -70 27 -11 5 -22 9 -25 10 -3 0 -34 10 -70 22 -93 30 -203 59 -295
78 -44 9 -87 18 -95 20 -30 6 -205 30 -285 39 -120 14 -607 30 -618 20z"/>
<path d="M42095 32749 c-66 -7 -163 -18 -210 -24 -16 -2 -46 -6 -65 -10 -19
-3 -51 -8 -70 -11 -19 -3 -48 -10 -65 -14 -16 -5 -42 -11 -56 -14 -112 -19
-401 -115 -544 -181 -33 -16 -62 -29 -65 -30 -13 -4 -106 -50 -110 -54 -3 -3
-27 -17 -55 -31 -27 -13 -52 -27 -55 -30 -3 -3 -21 -13 -40 -24 -35 -19 -192
-120 -220 -143 -8 -6 -46 -35 -85 -64 -38 -29 -77 -59 -87 -68 -9 -9 -42 -38
-74 -66 -52 -45 -227 -219 -264 -262 -8 -9 -32 -37 -53 -62 -54 -64 -68 -81
-101 -126 -17 -22 -35 -43 -40 -47 -6 -4 -7 -8 -3 -8 5 0 1 -8 -9 -17 -19 -19
-164 -238 -164 -248 0 -3 -16 -30 -35 -60 -19 -30 -32 -55 -29 -55 3 0 -3 -12
-14 -27 -42 -61 -202 -432 -202 -468 0 -8 -5 -15 -12 -15 -6 0 -9 -3 -5 -6 3
-3 1 -18 -5 -33 -15 -39 -68 -221 -75 -256 -3 -16 -9 -35 -14 -41 -5 -6 -7
-13 -4 -16 3 -2 0 -20 -5 -39 -6 -19 -13 -47 -15 -64 -3 -16 -12 -64 -20 -105
-7 -41 -16 -93 -19 -115 -3 -22 -9 -60 -12 -85 -8 -56 -12 -91 -21 -210 -10
-123 -9 -640 1 -750 10 -104 14 -145 16 -145 1 0 3 -20 4 -45 2 -25 6 -58 9
-75 3 -16 8 -50 12 -75 13 -91 16 -105 21 -123 3 -10 7 -30 9 -46 13 -102 135
-525 180 -626 7 -16 22 -53 33 -81 11 -28 42 -95 68 -150 27 -54 47 -102 46
-106 -1 -5 3 -8 8 -8 6 0 10 -4 10 -9 0 -20 115 -207 227 -371 87 -126 360
-421 467 -505 21 -16 44 -35 50 -40 48 -44 166 -127 311 -221 58 -37 269 -145
365 -187 105 -46 280 -108 280 -100 0 3 6 1 13 -4 6 -6 26 -14 42 -18 17 -4
37 -9 45 -11 185 -48 226 -58 300 -69 19 -3 61 -10 93 -16 59 -10 82 -13 192
-24 228 -21 521 -21 720 1 33 3 71 7 85 9 14 1 50 6 80 10 30 5 64 9 75 11 11
1 20 3 20 4 0 1 11 3 25 6 78 13 228 48 301 69 46 14 91 27 99 29 26 7 209 74
248 92 121 54 240 115 332 171 58 35 114 69 125 76 11 7 22 14 25 17 3 3 30
23 60 45 30 22 57 43 58 47 2 5 8 8 12 8 5 0 20 10 33 23 13 12 53 48 90 80
76 67 169 162 247 254 126 148 284 402 360 578 12 28 27 64 35 80 26 58 55
134 55 145 0 7 7 26 15 44 23 49 106 389 96 396 -12 7 -299 5 -307 -2 -2 -3
-14 -43 -25 -89 -21 -91 -55 -205 -68 -229 -5 -9 -12 -31 -16 -50 -4 -19 -11
-41 -16 -50 -4 -8 -16 -33 -25 -55 -59 -140 -207 -411 -244 -445 -3 -3 -19
-26 -37 -51 -18 -25 -47 -64 -65 -85 -59 -70 -247 -258 -281 -281 -17 -13 -47
-36 -66 -53 -18 -16 -72 -55 -120 -86 -47 -31 -97 -64 -111 -74 -25 -17 -286
-149 -295 -150 -3 0 -20 -6 -38 -13 -106 -45 -390 -129 -477 -142 -14 -2 -50
-9 -80 -15 -30 -6 -75 -13 -100 -15 -25 -3 -58 -7 -75 -9 -222 -34 -646 -24
-891 20 -44 8 -94 16 -110 18 -16 3 -40 7 -54 10 -14 4 -36 8 -50 11 -14 3
-41 10 -60 15 -19 6 -45 13 -57 16 -47 9 -268 87 -332 115 -130 60 -197 93
-260 131 -34 21 -65 38 -67 38 -13 0 -247 169 -319 230 -143 121 -399 412
-465 529 -8 14 -17 28 -21 31 -4 4 -33 49 -66 105 -122 205 -238 483 -313 748
-25 91 -23 83 -51 212 -11 55 -23 109 -25 120 -2 11 -7 35 -9 53 -3 17 -8 49
-11 70 -4 20 -8 55 -10 77 -1 22 -3 40 -4 40 -1 0 -3 14 -5 30 -1 17 -6 59
-10 95 -16 144 -25 610 -12 610 4 0 3 8 -2 19 -6 10 -8 21 -4 24 3 4 7 39 8
79 3 78 13 197 19 238 2 14 7 47 11 73 4 27 8 56 10 65 1 10 6 39 9 66 4 27 9
52 11 55 1 3 6 22 9 41 9 56 12 70 46 196 17 65 33 127 35 137 2 9 7 22 10 27
3 5 8 18 10 27 6 27 56 167 64 178 4 6 13 28 20 50 8 22 32 78 54 125 22 47
41 87 42 90 6 27 145 263 157 268 4 2 6 7 3 12 -2 4 7 20 20 36 14 16 25 32
25 35 0 3 12 22 28 42 15 19 36 48 47 63 88 123 276 325 410 440 97 83 232
184 244 184 6 0 11 5 11 10 0 6 4 10 9 10 4 0 39 20 77 45 37 25 74 45 80 45
7 0 14 4 16 8 3 7 155 84 250 126 75 33 234 90 283 102 6 1 45 12 88 24 43 12
90 24 105 26 15 3 34 7 42 9 31 9 190 33 280 42 93 10 544 10 625 0 33 -4 83
-10 110 -13 274 -31 671 -146 850 -246 11 -7 54 -30 95 -52 41 -22 77 -43 78
-48 2 -4 10 -8 18 -8 8 0 14 -4 14 -10 0 -5 5 -10 11 -10 12 0 23 -8 154 -112
50 -39 115 -96 146 -127 104 -105 239 -268 239 -289 0 -6 4 -12 9 -14 10 -3
101 -151 101 -163 0 -5 6 -16 14 -24 8 -9 24 -41 37 -71 13 -30 25 -57 28 -60
4 -3 12 -21 19 -40 56 -149 81 -220 76 -220 -4 0 -2 -6 4 -13 6 -7 20 -51 32
-97 12 -47 26 -99 31 -115 l9 -30 162 1 c90 1 166 2 171 3 8 1 3 39 -19 129
-9 35 -17 68 -18 75 -31 157 -166 478 -276 657 -128 207 -288 396 -460 540
-36 30 -66 58 -68 63 -2 4 -8 7 -13 7 -6 0 -20 9 -32 21 -28 26 -185 132 -229
155 -18 9 -35 20 -38 23 -3 3 -32 20 -65 36 -33 17 -63 34 -66 38 -3 5 -9 8
-13 7 -3 0 -28 9 -54 21 -26 12 -49 23 -52 24 -3 0 -26 10 -51 22 -25 11 -63
26 -85 33 -21 7 -43 15 -49 19 -5 3 -14 7 -20 8 -5 1 -62 18 -125 38 -63 19
-146 42 -185 50 -38 9 -79 18 -90 20 -49 11 -92 19 -165 30 -19 2 -46 7 -60 9
-14 3 -56 7 -95 11 -38 4 -90 9 -115 12 -70 8 -478 9 -545 2z"/>
<path d="M56368 32754 c-2 -1 -43 -5 -93 -8 -88 -6 -123 -10 -195 -21 -78 -11
-106 -16 -130 -21 -14 -3 -38 -8 -55 -11 -16 -2 -55 -11 -85 -19 -30 -8 -64
-17 -75 -19 -75 -17 -364 -126 -395 -149 -8 -6 -37 -22 -65 -36 -57 -27 -232
-142 -285 -186 -84 -70 -230 -227 -290 -311 -124 -177 -220 -397 -254 -584 -2
-13 -5 -24 -6 -24 -2 0 -4 -16 -16 -105 -17 -121 -8 -507 12 -571 2 -10 6 -30
8 -46 2 -15 9 -48 16 -73 7 -25 13 -52 15 -60 2 -8 9 -28 16 -45 6 -16 13 -36
15 -43 1 -7 12 -33 23 -58 12 -24 21 -46 21 -48 0 -9 85 -151 92 -154 4 -2 8
-8 8 -14 0 -32 200 -244 295 -314 15 -10 46 -33 69 -49 52 -38 126 -83 191
-115 28 -14 52 -27 55 -30 8 -9 170 -81 225 -100 28 -10 64 -24 80 -30 17 -7
36 -15 43 -17 6 -1 18 -5 25 -6 6 -2 19 -7 27 -10 26 -10 149 -47 167 -50 10
-2 25 -7 33 -10 8 -4 26 -9 40 -11 14 -3 42 -10 63 -15 20 -5 37 -7 37 -4 0 3
6 1 13 -4 6 -6 28 -13 47 -17 19 -3 46 -8 60 -11 14 -3 50 -9 80 -15 30 -6 73
-15 95 -20 22 -5 58 -12 80 -14 22 -3 51 -8 65 -11 14 -2 45 -8 70 -11 61 -8
119 -17 195 -30 11 -2 36 -6 55 -8 19 -3 48 -8 63 -12 16 -3 38 -7 50 -9 12
-1 38 -6 57 -10 19 -4 44 -8 55 -10 104 -16 466 -104 510 -124 11 -5 40 -15
65 -22 25 -7 50 -15 55 -19 6 -3 28 -12 50 -19 43 -15 181 -76 205 -91 8 -5
33 -18 55 -29 105 -51 291 -208 361 -306 16 -22 33 -43 39 -47 7 -5 7 -8 0 -8
-6 0 -6 -3 1 -8 15 -10 69 -109 89 -162 9 -25 21 -54 25 -65 20 -49 24 -62 34
-110 1 -5 4 -14 8 -20 3 -5 8 -31 12 -56 4 -25 9 -57 11 -70 37 -216 38 -520
2 -679 -5 -18 -21 -93 -22 -100 -1 -3 -9 -32 -20 -65 -10 -33 -19 -62 -20 -65
-1 -3 -6 -16 -12 -30 -6 -14 -19 -45 -29 -70 -9 -25 -21 -50 -26 -56 -4 -6
-20 -33 -34 -60 -81 -152 -253 -343 -419 -462 -106 -76 -313 -185 -430 -226
-68 -24 -185 -59 -195 -59 -3 0 -25 -5 -50 -12 -41 -12 -168 -36 -260 -49
-129 -19 -496 -26 -630 -13 -30 3 -76 7 -102 8 -27 2 -48 6 -48 11 0 4 -6 5
-14 2 -36 -14 -431 70 -541 116 -11 4 -47 18 -80 31 -74 27 -254 116 -276 135
-8 8 -21 14 -27 14 -6 0 -17 6 -24 13 -7 7 -35 28 -63 47 -27 19 -51 37 -53
42 -2 4 -8 8 -12 8 -5 0 -22 12 -38 28 -16 15 -49 45 -73 68 -48 44 -137 144
-197 219 -32 41 -116 187 -156 270 -26 55 -51 108 -57 117 -5 10 -9 26 -9 36
0 10 -3 22 -7 26 -7 6 -31 68 -37 96 -2 8 -9 33 -15 55 -6 22 -10 42 -11 45 0
3 -6 28 -14 55 -8 28 -17 68 -20 90 -3 22 -10 56 -14 75 l-8 35 -167 0 c-92 1
-167 -2 -167 -5 0 -4 4 -31 10 -61 5 -30 11 -67 14 -84 3 -16 10 -48 15 -70 5
-22 12 -51 15 -65 12 -64 79 -271 115 -355 60 -140 216 -414 242 -423 5 -2 9
-10 9 -17 0 -7 3 -15 8 -17 4 -1 25 -25 47 -53 195 -243 512 -469 830 -592 95
-37 118 -46 125 -48 3 -1 38 -11 78 -24 82 -25 303 -76 372 -86 25 -3 61 -9
80 -11 132 -20 375 -36 540 -36 99 1 303 11 340 17 14 2 45 7 70 10 54 7 167
24 195 30 38 9 160 36 175 40 70 18 215 67 226 76 8 6 14 9 14 5 0 -4 13 0 29
8 16 9 31 12 35 9 3 -4 6 -1 6 5 0 7 4 12 10 12 16 0 181 80 249 122 34 21 65
38 67 38 3 0 14 9 26 20 12 11 28 20 35 20 7 0 13 3 13 8 0 4 21 21 45 37 25
17 45 33 45 38 0 4 5 7 10 7 6 0 18 8 28 18 10 9 50 46 88 82 204 193 362 439
452 705 24 73 53 179 58 220 2 17 6 41 9 55 15 73 20 155 19 340 -2 170 -8
315 -14 315 -1 0 -3 18 -6 40 -2 22 -9 60 -14 85 -5 25 -12 56 -14 70 -15 83
-68 241 -106 312 -11 20 -20 42 -20 47 0 13 -82 146 -110 178 -11 13 -20 25
-20 28 0 12 -139 157 -195 205 -49 41 -138 104 -167 119 -16 8 -28 18 -28 23
0 4 -9 8 -19 8 -11 0 -21 4 -23 8 -4 11 -207 112 -225 112 -7 0 -13 5 -13 12
0 6 -3 8 -7 5 -3 -4 -12 -2 -20 4 -7 6 -13 9 -13 5 0 -4 -12 0 -27 8 -65 33
-364 124 -533 162 -36 8 -74 16 -85 19 -25 6 -219 43 -264 50 -19 3 -37 8 -41
10 -4 2 -29 6 -56 9 -27 3 -62 8 -79 12 -16 3 -41 7 -55 9 -14 2 -25 4 -25 5
0 1 -20 3 -44 6 -25 2 -56 7 -70 10 -14 3 -39 7 -56 10 -25 4 -74 12 -232 40
-13 2 -34 6 -48 8 -13 3 -28 7 -32 9 -5 3 -26 8 -48 11 -22 4 -58 11 -80 17
-38 11 -50 13 -96 24 -43 9 -256 73 -284 85 -39 16 -140 55 -145 55 -16 1
-265 130 -280 145 -3 3 -12 10 -21 15 -96 60 -178 131 -273 239 -30 35 -76
104 -76 115 0 6 -3 11 -8 11 -10 0 -94 184 -101 222 -1 4 -3 13 -5 20 -5 16
-24 102 -31 143 -11 61 -19 183 -19 275 0 102 10 245 17 258 3 4 8 29 11 56 4
27 9 52 11 56 2 4 6 17 8 31 12 61 93 270 119 304 4 6 31 46 60 90 106 163
295 321 507 426 93 46 306 122 369 132 17 3 34 7 39 10 4 3 26 8 47 11 21 4
48 8 60 11 45 10 130 22 226 32 91 9 530 9 615 0 74 -8 98 -11 185 -26 199
-33 380 -92 535 -173 75 -39 185 -110 185 -119 0 -5 7 -9 15 -9 23 0 223 -204
281 -285 61 -87 73 -107 133 -230 58 -119 84 -190 125 -350 l32 -120 149 -1
c83 0 156 2 163 4 9 3 11 13 7 31 -4 14 -9 36 -11 49 -5 25 -10 51 -23 107
-30 131 -131 403 -153 413 -5 2 -8 12 -8 22 0 9 -7 23 -15 30 -8 7 -15 17 -15
22 0 16 -121 197 -169 253 -211 247 -450 413 -757 525 -106 39 -116 42 -129
46 -5 1 -44 11 -85 23 -41 11 -86 22 -100 25 -14 3 -47 9 -75 14 -27 6 -75 13
-105 17 -30 3 -66 8 -80 10 -81 13 -542 29 -552 19z"/>
<path d="M46511 29278 l0 -3413 162 0 162 0 2 120 c1 66 2 134 2 150 1 17 0
81 -2 143 -1 61 2 112 6 112 5 0 5 5 1 11 -5 9 -8 293 -5 454 1 17 0 135 -1
263 -2 127 1 232 5 232 5 0 5 5 1 11 -5 10 -7 162 -5 374 0 17 0 50 -2 75 -1
25 1 55 5 68 4 12 4 22 0 22 -4 0 -6 28 -5 62 3 80 3 95 2 253 0 72 0 144 0
160 0 17 0 50 -2 75 -1 25 1 55 5 68 4 12 4 22 0 22 -4 0 -6 28 -5 62 3 94 3
113 0 236 -1 61 2 112 6 112 5 0 5 5 1 11 -5 9 -8 293 -5 454 1 17 0 135 -1
263 -2 127 1 232 5 232 5 0 5 5 1 11 -5 10 -7 162 -5 374 0 17 0 50 -2 75 -1
25 1 55 5 68 4 12 4 22 0 22 -4 0 -6 28 -5 62 3 90 3 77 2 613 0 270 0 504 0
520 1 17 0 162 -1 323 -3 241 -1 289 10 275 7 -10 16 -29 19 -43 3 -14 9 -29
13 -35 4 -5 29 -62 55 -125 26 -63 55 -133 65 -155 10 -22 44 -101 75 -175 31
-74 62 -146 68 -160 6 -14 11 -27 12 -30 4 -13 77 -185 99 -235 7 -16 18 -41
24 -55 15 -38 40 -96 56 -132 51 -115 176 -418 176 -427 0 -6 5 -11 10 -11 6
0 9 -3 8 -7 0 -5 2 -17 7 -28 13 -34 116 -278 129 -310 8 -16 26 -59 41 -95
15 -36 39 -89 52 -118 14 -29 26 -58 27 -65 3 -14 14 -40 47 -112 12 -27 23
-55 25 -62 1 -7 11 -31 22 -55 27 -57 69 -155 77 -178 2 -7 34 -80 45 -105 5
-11 23 -54 40 -95 17 -41 37 -88 45 -105 7 -16 36 -86 65 -155 29 -69 60 -143
70 -165 9 -22 30 -71 45 -110 16 -38 35 -79 42 -90 6 -11 12 -22 12 -25 -1 -4
5 -19 32 -85 4 -11 19 -46 33 -78 14 -32 26 -60 26 -62 0 -2 14 -34 30 -70 17
-36 30 -71 30 -78 0 -7 4 -17 9 -22 8 -9 19 -33 66 -150 5 -11 9 -22 10 -25 1
-3 12 -27 24 -55 13 -27 32 -72 43 -100 11 -27 26 -63 33 -80 8 -16 39 -91 71
-165 31 -74 66 -157 78 -185 13 -27 28 -66 36 -85 7 -19 17 -39 22 -45 4 -5 8
-14 8 -21 0 -6 12 -38 27 -70 15 -33 28 -61 29 -64 1 -8 23 -63 34 -85 5 -11
30 -69 55 -130 25 -60 56 -130 67 -154 12 -25 21 -51 21 -58 0 -7 4 -13 9 -13
4 0 8 -5 8 -10 0 -9 68 -175 116 -285 10 -22 18 -42 19 -45 3 -9 25 -60 45
-104 11 -25 20 -47 20 -51 0 -3 9 -27 21 -53 12 -26 25 -56 29 -67 5 -11 18
-40 28 -65 11 -25 32 -74 47 -110 15 -36 35 -81 43 -100 9 -19 16 -37 17 -40
0 -3 11 -30 24 -60 l23 -55 68 0 68 0 17 40 c22 51 37 86 69 157 14 31 26 59
26 62 0 4 9 25 19 49 11 23 33 73 50 110 17 38 31 75 31 83 0 8 5 14 10 14 6
0 10 6 10 14 0 11 22 66 76 183 8 17 14 34 14 37 0 6 53 124 76 169 8 16 14
32 14 37 0 5 13 37 30 72 25 55 49 111 55 128 1 3 10 23 19 45 10 22 32 72 48
110 17 39 40 90 51 115 11 25 20 51 20 58 0 6 4 12 9 12 4 0 8 7 8 15 0 9 7
27 16 40 9 14 13 25 9 25 -4 0 -1 7 6 16 7 9 19 30 25 48 31 82 56 141 62 146
4 3 8 11 10 18 1 6 27 69 58 140 30 70 56 132 57 137 2 6 12 30 24 55 12 25
34 74 48 110 15 36 38 89 51 118 13 29 24 54 24 57 0 2 14 33 30 68 17 36 30
68 30 71 0 3 11 30 25 61 14 30 36 80 50 110 14 31 25 57 25 59 0 2 12 30 27
62 14 33 27 64 29 69 1 6 27 67 58 137 31 69 56 131 56 137 0 6 4 11 10 11 5
0 9 3 8 8 -2 6 38 108 85 212 11 25 27 63 37 85 41 96 83 193 101 232 10 24
35 82 55 130 20 49 39 93 42 98 4 6 7 12 7 15 1 3 11 27 23 54 12 27 22 50 22
52 0 2 9 23 19 47 11 23 33 73 50 110 17 38 34 79 37 93 3 13 10 27 15 30 5 3
9 14 9 25 0 10 4 19 10 19 5 0 9 3 8 8 -1 8 10 36 41 105 11 24 29 66 39 93
18 43 40 95 87 199 13 29 37 85 40 95 3 9 22 53 46 105 12 28 23 55 25 60 2
11 30 74 75 173 16 35 29 65 29 67 0 2 14 33 30 68 17 36 30 68 30 71 0 3 12
31 26 63 40 91 82 187 129 298 19 46 41 95 63 145 11 25 46 106 77 180 65 152
113 260 117 260 2 0 3 -1441 3 -3202 l0 -3203 171 0 170 0 0 278 c-1 152 3
277 8 277 5 0 4 6 -1 13 -7 10 -10 720 -3 737 1 3 1 10 0 15 -7 26 -4 875 3
875 5 0 5 6 0 13 -10 17 -11 58 -1 80 5 9 5 17 1 17 -7 0 -9 905 -3 920 1 3 1
10 0 15 -7 27 -4 1155 3 1155 5 0 5 6 0 12 -10 17 -10 988 0 988 5 0 5 6 0 13
-10 17 -11 58 -1 80 5 9 5 17 1 17 -4 0 -8 263 -8 585 0 322 4 585 8 585 5 0
5 6 0 13 -4 6 -8 39 -8 72 l0 60 -255 2 -255 3 -89 -213 c-49 -116 -99 -232
-110 -257 -11 -25 -21 -47 -21 -50 -2 -6 -6 -14 -75 -175 -71 -164 -73 -169
-74 -175 -1 -3 -6 -12 -11 -20 -5 -8 -10 -19 -11 -25 -2 -5 -25 -63 -53 -127
-50 -119 -62 -146 -99 -228 -11 -25 -32 -74 -46 -110 -15 -36 -35 -83 -45
-105 -10 -22 -38 -85 -61 -140 -23 -55 -49 -116 -57 -135 -8 -19 -19 -44 -23
-55 -5 -11 -25 -55 -44 -97 -19 -43 -32 -78 -29 -78 3 0 -2 -9 -12 -20 -10
-11 -15 -20 -12 -20 3 0 -8 -30 -25 -67 -16 -38 -39 -87 -49 -110 -10 -23 -19
-45 -19 -48 0 -3 -9 -26 -20 -51 -11 -24 -29 -65 -41 -91 -11 -27 -24 -57 -29
-68 -45 -97 -117 -275 -112 -275 4 0 2 -4 -3 -8 -6 -4 -19 -27 -29 -52 -10
-25 -24 -58 -32 -75 -7 -16 -35 -84 -63 -150 -29 -66 -58 -133 -66 -150 -7
-16 -34 -79 -60 -140 -51 -121 -72 -170 -85 -200 -5 -11 -22 -50 -39 -87 -16
-38 -27 -68 -24 -68 3 0 1 -6 -5 -12 -5 -7 -45 -94 -87 -193 -92 -213 -98
-228 -99 -235 -1 -3 -4 -9 -8 -15 -3 -5 -22 -50 -43 -100 -20 -49 -41 -96 -47
-102 -6 -7 -7 -13 -4 -13 4 0 0 -12 -8 -27 -8 -16 -29 -62 -46 -103 -18 -41
-40 -93 -50 -115 -9 -22 -41 -96 -70 -165 -29 -69 -56 -129 -61 -135 -4 -5 -8
-14 -9 -20 -4 -16 -246 -586 -336 -790 -9 -22 -18 -42 -19 -45 -1 -3 -8 -21
-17 -40 -8 -19 -28 -64 -43 -100 -15 -36 -36 -85 -47 -110 -24 -53 -38 -86
-66 -155 l-21 -50 -21 50 c-12 28 -25 59 -30 70 -4 11 -17 40 -27 65 -11 25
-30 70 -43 100 -13 30 -32 75 -43 100 -11 25 -20 50 -21 55 -1 6 -4 15 -8 20
-3 6 -31 71 -62 145 -96 229 -158 373 -182 428 -13 29 -24 56 -24 61 0 5 -8
26 -19 48 -18 36 -35 76 -41 98 -2 6 -18 42 -36 82 -18 39 -30 74 -27 77 4 3
1 6 -5 6 -7 0 -12 7 -12 15 0 8 -4 23 -10 33 -5 9 -31 67 -56 127 -25 61 -52
124 -59 140 -28 64 -107 257 -110 265 0 3 -11 27 -23 54 -12 27 -22 50 -22 52
0 2 -11 27 -24 56 -13 29 -40 94 -60 143 -21 50 -43 104 -50 120 -8 17 -37 86
-66 155 -29 69 -60 143 -70 165 -10 22 -41 96 -70 165 -53 129 -67 160 -93
220 -9 19 -25 60 -37 90 -12 30 -32 78 -46 108 -13 29 -24 55 -24 57 0 3 -9
24 -19 48 -10 23 -36 83 -56 132 -21 50 -43 103 -51 119 -8 16 -14 35 -14 43
0 7 -3 13 -8 13 -4 0 -13 18 -20 41 -7 22 -21 59 -31 82 -17 36 -86 199 -111
262 -5 11 -17 40 -28 65 -11 25 -43 101 -72 170 -28 69 -60 144 -71 167 -10
24 -19 45 -19 48 0 3 -9 24 -19 48 -11 23 -38 87 -62 142 -23 55 -49 118 -59
140 -10 22 -41 96 -70 165 -28 69 -57 139 -65 155 -7 17 -25 59 -40 95 -15 36
-32 76 -38 90 -6 14 -11 27 -12 30 -5 13 -21 51 -47 110 -17 36 -31 70 -32 75
-4 16 -22 57 -69 165 -8 19 -45 105 -80 190 -36 85 -72 172 -81 193 l-16 37
-255 0 -254 0 0 -3412z"/>
<path d="M8718 30975 c-1 -1 -61 -5 -133 -8 -71 -4 -150 -9 -175 -12 -25 -3
-65 -8 -90 -10 -25 -2 -46 -5 -47 -6 -4 -2 -12 -4 -68 -14 -67 -11 -70 -12
-125 -25 -26 -6 -56 -13 -66 -15 -11 -2 -19 -4 -19 -5 0 -1 -11 -3 -24 -6 -28
-5 -251 -79 -296 -98 -144 -61 -353 -169 -366 -189 -3 -5 -8 -7 -10 -6 -5 4
-167 -103 -194 -128 -12 -10 -41 -34 -65 -53 -102 -79 -267 -243 -340 -339
-14 -18 -29 -38 -35 -44 -47 -55 -146 -205 -185 -279 -14 -27 -28 -48 -32 -48
-5 0 -8 -8 -8 -18 0 -10 -6 -24 -12 -31 -7 -6 -13 -15 -14 -19 0 -4 -9 -27
-21 -52 -53 -114 -67 -149 -104 -262 -22 -66 -42 -129 -44 -140 -2 -11 -7 -28
-10 -38 -3 -10 -8 -27 -10 -37 -2 -10 -13 -61 -25 -113 -11 -52 -22 -115 -25
-140 -3 -25 -7 -54 -9 -65 -9 -46 -18 -153 -21 -263 -3 -64 -5 -119 -6 -122
-1 -3 -1 -8 0 -13 1 -4 3 -81 6 -170 3 -89 7 -182 9 -207 5 -60 17 -160 22
-185 4 -20 11 -61 18 -105 2 -14 7 -36 10 -50 3 -14 8 -36 10 -50 37 -197 163
-517 277 -705 47 -78 119 -187 129 -195 3 -3 17 -21 30 -40 57 -83 230 -257
350 -355 81 -66 236 -171 310 -211 19 -10 43 -26 54 -34 10 -8 21 -14 25 -14
3 1 48 -18 99 -42 51 -24 98 -44 105 -44 7 0 17 -4 23 -9 24 -23 350 -119 463
-137 19 -3 44 -10 56 -14 13 -5 31 -7 41 -6 11 2 23 1 29 -2 5 -4 23 -7 40 -9
16 -1 44 -4 60 -7 153 -28 630 -29 840 -1 126 16 138 18 195 30 14 3 36 7 50
10 53 10 128 28 194 47 38 11 76 21 85 23 35 7 261 99 332 135 108 55 246 135
259 150 3 3 34 27 70 52 137 97 262 221 380 378 67 88 85 114 97 140 4 8 10
17 13 20 14 10 107 197 143 285 36 91 82 229 90 275 3 14 8 32 11 40 5 14 8
33 21 113 3 17 8 43 12 57 3 14 7 39 8 55 1 17 5 60 9 98 4 37 4 68 -1 68 -4
1 -288 2 -630 3 l-623 1 -1 -27 c-1 -26 -3 -38 -9 -55 -1 -5 -2 -11 -1 -16 1
-4 -4 -26 -9 -50 -6 -23 -13 -51 -15 -61 -7 -29 -25 -89 -35 -111 -24 -57 -76
-160 -82 -163 -5 -2 -8 -9 -8 -14 0 -29 -205 -258 -231 -258 -4 0 -14 -6 -21
-13 -22 -22 -136 -86 -142 -80 -3 4 -6 2 -6 -3 0 -6 -30 -21 -67 -33 -38 -13
-75 -25 -83 -28 -26 -10 -39 -13 -110 -28 -140 -29 -432 -26 -555 5 -22 6 -49
13 -60 15 -93 22 -244 87 -289 124 -10 9 -20 15 -22 13 -16 -10 -208 165 -252
230 -9 13 -18 25 -22 28 -11 10 -84 135 -110 189 -15 31 -39 92 -54 136 -15
44 -30 87 -33 95 -7 18 -7 16 -28 115 -21 102 -27 137 -42 266 -8 72 -9 517 0
599 7 74 15 133 23 170 3 14 7 39 10 55 13 78 63 242 96 315 39 88 63 135 71
138 4 2 7 8 7 13 0 9 68 114 95 147 46 56 152 157 210 199 63 45 184 114 210
120 5 1 36 11 68 22 199 72 483 85 712 31 75 -17 77 -18 123 -35 164 -59 307
-170 404 -312 42 -61 108 -195 108 -218 0 -8 4 -16 9 -19 7 -5 13 -23 27 -85
10 -49 26 -118 30 -131 3 -14 82 -15 660 -16 l656 0 -6 56 c-3 30 -8 73 -10
95 -4 33 -27 148 -62 305 -23 108 -142 396 -196 477 -15 23 -28 45 -28 50 -1
13 -121 176 -179 243 -215 245 -506 435 -841 550 -52 18 -120 39 -150 47 -101
27 -205 52 -240 57 -19 3 -46 8 -60 11 -33 6 -97 15 -140 20 -19 2 -55 7 -80
10 -25 3 -115 8 -200 11 -85 3 -160 7 -167 9 -6 2 -13 2 -15 0z"/>
<path d="M26408 30974 c-2 -1 -46 -5 -98 -8 -52 -4 -106 -8 -120 -11 -14 -2
-44 -7 -68 -10 -61 -10 -252 -62 -305 -83 -16 -7 -30 -12 -33 -12 -3 0 -21 -7
-42 -17 -20 -9 -39 -17 -42 -17 -3 -1 -39 -19 -80 -40 -154 -78 -304 -189
-434 -321 -83 -84 -206 -241 -206 -262 0 -7 -4 -13 -9 -13 -5 0 -12 -8 -15
-17 -3 -10 -13 -29 -21 -43 -17 -30 -15 -80 -18 400 l-2 335 -692 1 c-506 1
-693 -2 -694 -10 -4 -63 0 -4966 4 -4972 4 -7 1342 -12 1379 -5 3 0 6 679 7
1509 0 829 3 1534 6 1567 7 73 24 168 39 220 2 6 6 24 11 40 4 17 11 35 15 40
4 6 13 28 20 50 7 22 16 42 19 45 3 3 14 21 23 40 31 62 68 111 138 185 160
169 405 266 675 268 122 1 168 -4 269 -27 62 -15 193 -69 206 -85 3 -4 20 -18
39 -31 74 -52 167 -172 201 -260 7 -19 17 -40 21 -45 6 -8 39 -135 54 -210 16
-79 19 -326 19 -1727 1 -1053 4 -1578 11 -1579 35 -4 1358 -3 1364 1 4 3 7
676 8 1495 0 1448 2 1595 22 1700 17 84 20 94 32 133 23 74 72 182 82 182 5 0
5 5 2 10 -3 6 -1 10 4 10 6 0 11 5 11 12 0 25 103 145 188 219 175 150 484
229 767 196 267 -32 458 -171 559 -407 15 -36 30 -72 32 -80 35 -135 36 -140
50 -275 3 -33 7 -765 7 -1627 0 -1109 4 -1568 11 -1571 10 -3 1353 -1 1366 2
7 2 4 3352 -4 3436 -8 102 -16 177 -21 205 -3 14 -10 52 -15 85 -14 81 -25
129 -45 200 -9 33 -18 65 -19 70 -2 6 -6 17 -9 25 -3 8 -17 49 -32 90 -25 68
-90 209 -126 269 -89 154 -266 347 -404 442 -95 65 -215 128 -324 170 -74 29
-242 73 -311 83 -80 11 -137 19 -165 22 -41 5 -289 4 -348 -1 -75 -6 -150 -15
-177 -20 -14 -3 -40 -8 -59 -11 -44 -7 -60 -11 -98 -23 -18 -5 -33 -8 -33 -6
0 2 -17 -3 -37 -12 -21 -8 -40 -15 -43 -14 -7 1 -65 -17 -130 -41 -161 -60
-355 -163 -454 -240 -16 -13 -33 -25 -39 -27 -21 -8 -146 -119 -230 -206 -73
-74 -197 -229 -197 -245 0 -28 -20 -2 -53 68 -42 89 -77 151 -95 170 -6 8 -17
23 -24 35 -41 77 -212 251 -319 323 -41 28 -108 68 -149 88 -41 21 -83 42 -92
47 -10 5 -22 9 -27 9 -5 0 -22 5 -38 12 -58 23 -216 64 -285 74 -29 3 -64 9
-78 11 -14 2 -77 6 -140 9 -63 2 -125 6 -137 8 -13 2 -24 2 -25 0z"/>
<path d="M34478 30975 c-2 -2 -64 -5 -138 -8 -74 -3 -135 -6 -135 -7 0 -1 -27
-3 -60 -5 -60 -3 -146 -13 -175 -20 -8 -2 -35 -7 -60 -10 -25 -3 -69 -10 -97
-16 -29 -6 -55 -10 -58 -11 -2 0 -37 -9 -77 -19 -40 -11 -84 -22 -98 -25 -25
-5 -207 -67 -245 -84 -108 -47 -256 -123 -325 -169 -131 -86 -189 -133 -293
-238 -90 -91 -87 -88 -153 -181 -30 -42 -58 -82 -63 -88 -5 -6 -12 -20 -15
-32 -4 -12 -12 -22 -17 -22 -5 0 -9 -9 -9 -20 0 -11 -4 -20 -10 -20 -5 0 -10
-9 -10 -20 0 -11 -3 -20 -8 -20 -4 0 -18 -28 -32 -62 -13 -35 -27 -67 -31 -73
-18 -26 -81 -262 -94 -355 -3 -25 -9 -61 -12 -80 -3 -19 -6 -55 -7 -80 l-1
-45 655 0 c647 0 655 0 658 20 1 11 12 59 23 107 23 100 32 122 108 259 20 37
146 169 161 169 5 0 15 6 22 13 26 25 170 88 237 102 11 3 31 7 44 10 59 14
114 18 257 19 185 0 256 -9 375 -49 39 -13 121 -53 159 -78 30 -19 116 -107
116 -117 0 -6 3 -10 8 -10 24 0 115 -222 127 -307 2 -21 7 -49 10 -63 10 -49
18 -188 19 -333 1 -123 -1 -148 -14 -151 -8 -2 -184 -4 -390 -4 -333 -1 -466
-4 -660 -16 -81 -5 -201 -16 -230 -21 -14 -2 -50 -7 -80 -10 -30 -3 -80 -10
-110 -15 -30 -5 -72 -12 -94 -16 -21 -3 -48 -8 -60 -10 -11 -3 -32 -7 -46 -10
-25 -4 -81 -17 -135 -30 -16 -5 -34 -9 -40 -9 -5 -1 -17 -5 -25 -8 -13 -5
-119 -36 -145 -42 -5 -1 -17 -5 -25 -8 -8 -4 -49 -18 -90 -33 -41 -14 -95 -36
-120 -47 -25 -12 -47 -21 -50 -22 -17 -2 -184 -95 -251 -139 -116 -77 -255
-203 -340 -308 -27 -34 -144 -225 -144 -237 -1 -3 -10 -27 -22 -52 -11 -25
-30 -81 -43 -125 -12 -43 -24 -86 -27 -94 -3 -8 -7 -26 -8 -40 -2 -14 -6 -45
-10 -70 -17 -102 -22 -317 -10 -410 3 -30 8 -68 10 -85 26 -208 96 -412 195
-566 41 -64 101 -142 112 -147 5 -2 8 -7 8 -12 0 -14 116 -121 196 -181 221
-165 538 -280 869 -315 91 -10 469 -12 530 -4 33 5 83 11 110 14 53 6 83 11
155 27 25 6 56 13 70 15 14 3 42 11 63 19 20 8 37 13 37 10 0 -3 13 1 29 10
17 8 38 17 48 18 33 7 204 83 213 95 3 5 21 16 41 25 34 16 175 112 209 143
70 63 173 168 205 209 22 28 43 52 46 55 3 3 13 16 22 30 l17 24 1 -24 c1 -14
2 -149 2 -300 l2 -275 675 0 675 0 -1 1715 c0 1527 -3 1783 -19 1880 -2 14 -6
45 -9 70 -3 25 -8 56 -12 70 -3 14 -7 34 -9 45 -14 95 -91 314 -149 429 -70
137 -149 248 -254 355 -110 111 -136 131 -317 249 -19 12 -184 95 -195 97 -3
1 -18 7 -35 14 -71 30 -242 85 -300 97 -11 2 -31 6 -45 9 -91 19 -181 37 -210
41 -149 19 -215 24 -385 30 -82 2 -158 6 -167 8 -9 2 -18 2 -20 1z m737 -2945
c20 0 20 -6 19 -247 -2 -253 -6 -313 -23 -370 -5 -18 -8 -33 -6 -33 2 0 -7
-27 -20 -61 -100 -253 -288 -424 -576 -523 -41 -14 -86 -28 -101 -31 -16 -3
-39 -7 -53 -10 -111 -22 -182 -28 -322 -28 -238 1 -403 51 -534 160 -66 55
-138 169 -153 243 -3 14 -10 42 -15 63 -9 39 -8 243 3 286 34 145 108 255 229
344 34 25 172 95 208 106 51 16 231 60 260 64 19 3 34 6 34 7 0 0 23 3 52 5
29 3 65 7 80 10 15 3 114 8 218 11 105 4 191 7 192 8 1 1 447 -2 508 -4z"/>
<path d="M19895 30962 c-3 -3 -22 -6 -42 -7 -21 -1 -58 -6 -83 -9 -25 -4 -56
-9 -70 -11 -85 -12 -116 -18 -125 -24 -5 -3 -17 -6 -25 -7 -12 0 -51 -8 -100
-19 -82 -19 -286 -90 -395 -137 -92 -40 -266 -128 -275 -139 -3 -3 -16 -12
-29 -19 -14 -7 -30 -17 -35 -22 -6 -5 -34 -23 -61 -41 -55 -35 -159 -113 -215
-162 -127 -111 -380 -392 -380 -423 0 -6 -4 -12 -8 -14 -27 -10 -191 -303
-254 -453 -25 -59 -87 -231 -92 -257 -3 -13 -13 -50 -22 -83 -9 -33 -17 -67
-19 -75 -2 -8 -8 -35 -14 -60 -7 -25 -13 -58 -16 -75 -2 -16 -7 -48 -10 -70
-14 -92 -24 -184 -31 -280 -10 -132 -3 -505 11 -605 3 -25 8 -69 10 -98 3 -29
7 -57 9 -61 3 -4 8 -30 12 -57 9 -71 59 -269 93 -371 132 -400 370 -759 670
-1013 29 -25 63 -53 75 -64 11 -10 77 -56 146 -101 138 -92 318 -188 430 -230
3 -1 19 -7 35 -14 48 -20 257 -90 285 -95 14 -2 32 -7 40 -10 8 -3 26 -8 40
-10 14 -3 54 -12 90 -19 81 -18 164 -31 260 -42 19 -2 64 -7 100 -11 133 -16
729 -7 759 10 3 2 38 7 76 10 39 4 77 8 85 10 8 1 33 6 55 10 304 55 549 136
775 254 88 47 258 157 320 208 48 39 260 255 260 264 0 4 10 18 21 31 80 91
216 345 259 484 7 22 15 45 19 50 3 6 6 15 8 20 1 6 13 53 26 105 14 52 27
114 31 138 3 24 8 47 11 52 3 5 0 12 -7 16 -13 8 -145 7 -158 -1 -5 -3 -11 -1
-15 5 -4 7 -12 7 -26 0 -10 -6 -19 -7 -19 -3 0 4 -47 8 -105 8 -58 0 -105 -4
-105 -8 0 -5 -5 -5 -12 -1 -14 9 -184 8 -198 -1 -5 -3 -11 -1 -15 5 -4 7 -12
7 -26 0 -10 -6 -19 -7 -19 -3 0 8 -135 9 -227 2 -23 -2 -45 0 -49 4 -4 3 -15
2 -25 -4 -11 -5 -19 -6 -19 -2 0 8 -155 7 -177 -2 -7 -2 -15 -1 -17 4 -5 7
-70 6 -92 -3 -7 -3 -11 -13 -10 -22 2 -10 -6 -41 -16 -69 -11 -27 -24 -65 -29
-82 -6 -18 -14 -33 -20 -33 -6 0 -8 -3 -6 -7 5 -8 -13 -41 -59 -112 -57 -86
-175 -186 -289 -243 -84 -43 -255 -96 -335 -104 -19 -2 -62 -7 -95 -11 -79 -9
-293 -8 -375 2 -36 4 -76 9 -90 10 -14 2 -37 8 -52 14 -16 6 -28 9 -28 6 0 -2
-18 2 -40 10 -22 8 -40 11 -40 8 0 -4 -5 -2 -12 5 -7 7 -18 12 -26 12 -21 0
-212 92 -212 102 0 4 -6 8 -13 8 -15 0 -125 86 -178 139 -80 81 -163 200 -218
314 -33 69 -95 247 -104 302 -3 17 -8 41 -11 55 -3 13 -8 42 -11 65 -3 22 -8
47 -10 55 -3 8 -7 54 -10 103 l-5 87 78 0 c42 1 854 1 1804 1 1338 0 1727 3
1731 12 5 15 0 578 -7 662 -2 33 -7 81 -10 108 -3 26 -8 68 -11 95 -3 26 -8
54 -10 62 -3 8 -7 33 -11 55 -9 64 -12 77 -24 130 -6 28 -13 57 -15 65 -14 62
-48 180 -65 225 -5 11 -14 36 -20 55 -80 224 -232 490 -380 664 -48 57 -206
212 -255 251 -27 22 -55 45 -61 50 -6 6 -22 17 -34 25 -12 8 -28 21 -36 28 -7
6 -17 12 -22 12 -5 0 -17 9 -27 20 -10 11 -22 20 -27 20 -5 0 -28 13 -51 28
-69 47 -330 172 -392 188 -5 1 -21 6 -35 12 -14 5 -29 11 -35 12 -5 1 -21 7
-35 12 -14 5 -32 11 -40 14 -8 2 -49 12 -90 23 -41 11 -86 22 -100 25 -179 34
-206 39 -314 51 -27 3 -53 8 -59 12 -6 3 -7 1 -3 -5 5 -9 1 -9 -17 -3 -24 10
-523 12 -532 3z m475 -956 c19 -4 62 -11 95 -17 280 -50 511 -221 648 -481 20
-38 34 -68 30 -68 -3 0 -1 -6 5 -13 26 -31 87 -258 97 -362 2 -16 4 -30 5 -30
0 0 3 -21 5 -46 2 -26 5 -51 6 -55 1 -5 1 -14 0 -21 -1 -9 -252 -12 -1121 -12
l-1120 0 6 47 c3 26 8 50 10 53 2 3 6 19 8 35 13 66 17 83 47 174 45 137 145
330 206 400 7 8 32 37 56 64 51 59 140 134 222 187 60 38 182 92 238 105 4 1
8 2 10 4 2 2 15 5 57 14 62 15 78 17 130 23 30 3 56 7 58 8 6 5 267 -3 302 -9z"/>
</g>
</svg>
