<?xml version="1.0" standalone="no"?>
<!DOCTYPE svg PUBLIC "-//W3C//DTD SVG 20010904//EN"
 "http://www.w3.org/TR/2001/REC-SVG-20010904/DTD/svg10.dtd">
<svg version="1.0" xmlns="http://www.w3.org/2000/svg"
 width="700.000000pt" height="700.000000pt" viewBox="0 0 700.000000 700.000000"
 preserveAspectRatio="xMidYMid meet">
<metadata>
Created by potrace 1.11, written by Peter Selinger 2001-2013
</metadata>
<g transform="translate(0.000000,700.000000) scale(0.100000,-0.100000)"
fill="#000000" stroke="none">
<path d="M3215 6989 c-748 -64 -1435 -351 -1995 -835 -551 -475 -938 -1101
-1114 -1799 -34 -137 -72 -346 -88 -490 -17 -155 -17 -575 0 -730 63 -570 255
-1100 567 -1570 270 -405 644 -771 1047 -1024 457 -287 944 -456 1503 -523
139 -16 595 -16 730 0 847 103 1555 446 2131 1034 204 208 346 389 490 623
269 439 429 910 496 1460 16 130 16 600 0 730 -73 596 -246 1079 -557 1555
-139 213 -239 336 -449 548 -657 668 -1554 1038 -2496 1031 -91 -1 -210 -6
-265 -10z m-652 -1764 c312 -56 527 -178 672 -380 96 -134 139 -253 179 -492
l6 -33 -328 0 -328 0 -12 59 c-27 129 -114 247 -220 297 -157 74 -430 72 -582
-6 -107 -55 -170 -163 -170 -294 0 -243 141 -331 643 -401 372 -51 638 -140
807 -270 136 -104 229 -272 260 -465 13 -85 13 -290 -1 -366 -65 -370 -359
-669 -763 -773 -291 -76 -701 -65 -988 25 -356 112 -592 354 -678 694 -16 63
-40 209 -40 241 0 5 138 9 340 9 323 0 340 -1 340 -18 0 -34 40 -174 63 -226
53 -114 171 -202 321 -241 94 -24 257 -29 354 -11 268 48 423 240 382 474 -34
199 -162 266 -647 342 -471 72 -707 167 -876 350 -69 74 -137 210 -164 325
-28 123 -25 383 5 488 57 200 181 371 352 487 159 108 328 166 595 204 65 9
394 -4 478 -19z m2780 -839 c190 -45 331 -116 453 -229 86 -80 158 -183 203
-291 35 -84 70 -229 71 -289 l0 -37 -296 2 -297 3 -13 53 c-35 135 -112 234
-219 283 -76 34 -195 53 -283 44 -265 -27 -433 -204 -482 -509 -18 -111 -8
-379 18 -478 55 -204 171 -336 346 -390 105 -33 264 -31 363 4 158 56 263 178
296 341 l13 62 287 3 c158 1 287 0 287 -2 0 -38 -27 -179 -47 -241 -133 -422
-514 -665 -1043 -665 -260 0 -479 56 -673 172 -328 195 -507 548 -507 999 0
354 110 647 324 863 126 128 278 220 455 277 153 49 233 59 446 54 160 -3 207
-7 298 -29z"/>
</g>
</svg>
